<svg width="182" height="70" viewBox="0 0 182 70" fill="none" xmlns="http://www.w3.org/2000/svg">
<circle cx="3" cy="3" r="3" fill="white"/>
<circle cx="3" cy="19" r="3" fill="white"/>
<circle cx="3" cy="35" r="3" fill="white"/>
<circle cx="3" cy="51" r="3" fill="white"/>
<circle cx="3" cy="67" r="3" fill="white"/>
<circle cx="19" cy="3" r="3" fill="white"/>
<circle cx="19" cy="19" r="3" fill="white"/>
<circle cx="19" cy="35" r="3" fill="white"/>
<circle cx="19" cy="51" r="3" fill="white"/>
<circle cx="19" cy="67" r="3" fill="white"/>
<circle cx="35" cy="3" r="3" fill="white"/>
<circle cx="35" cy="19" r="3" fill="white"/>
<circle cx="35" cy="35" r="3" fill="white"/>
<circle cx="35" cy="51" r="3" fill="white"/>
<circle cx="35" cy="67" r="3" fill="white"/>
<circle cx="51" cy="3" r="3" fill="white"/>
<circle cx="51" cy="19" r="3" fill="white"/>
<circle cx="51" cy="35" r="3" fill="white"/>
<circle cx="51" cy="51" r="3" fill="white"/>
<circle cx="51" cy="67" r="3" fill="white"/>
<circle cx="67" cy="3" r="3" fill="white"/>
<circle cx="67" cy="19" r="3" fill="white"/>
<circle cx="67" cy="35" r="3" fill="white"/>
<circle cx="67" cy="51" r="3" fill="white"/>
<circle cx="67" cy="67" r="3" fill="white"/>
<circle cx="83" cy="3" r="3" fill="white"/>
<circle cx="83" cy="19" r="3" fill="white"/>
<circle cx="83" cy="35" r="3" fill="white"/>
<circle cx="83" cy="51" r="3" fill="white"/>
<circle cx="83" cy="67" r="3" fill="white"/>
<circle cx="99" cy="3" r="3" fill="white"/>
<circle cx="99" cy="19" r="3" fill="white"/>
<circle cx="99" cy="35" r="3" fill="white"/>
<circle cx="99" cy="51" r="3" fill="white"/>
<circle cx="99" cy="67" r="3" fill="white"/>
<circle cx="115" cy="3" r="3" fill="white"/>
<circle cx="115" cy="19" r="3" fill="white"/>
<circle cx="115" cy="35" r="3" fill="white"/>
<circle cx="115" cy="51" r="3" fill="white"/>
<circle cx="115" cy="67" r="3" fill="white"/>
<circle cx="131" cy="3" r="3" fill="white"/>
<circle cx="131" cy="19" r="3" fill="white"/>
<circle cx="131" cy="35" r="3" fill="white"/>
<circle cx="131" cy="51" r="3" fill="white"/>
<circle cx="131" cy="67" r="3" fill="white"/>
<circle cx="147" cy="3" r="3" fill="white"/>
<circle cx="147" cy="19" r="3" fill="white"/>
<circle cx="147" cy="35" r="3" fill="white"/>
<circle cx="147" cy="51" r="3" fill="white"/>
<circle cx="147" cy="67" r="3" fill="white"/>
<circle cx="163" cy="3" r="3" fill="white"/>
<circle cx="163" cy="19" r="3" fill="white"/>
<circle cx="163" cy="35" r="3" fill="white"/>
<circle cx="163" cy="51" r="3" fill="white"/>
<circle cx="163" cy="67" r="3" fill="white"/>
<circle cx="179" cy="3" r="3" fill="white"/>
<circle cx="179" cy="19" r="3" fill="white"/>
<circle cx="179" cy="35" r="3" fill="white"/>
<circle cx="179" cy="51" r="3" fill="white"/>
<circle cx="179" cy="67" r="3" fill="white"/>
</svg>
